<?xml version="1.0" encoding="utf-8"?>
<!-- Generator: Adobe Illustrator 23.0.4, SVG Export Plug-In . SVG Version: 6.00 Build 0)  -->
<svg version="1.1" id="Layer_1" xmlns="http://www.w3.org/2000/svg" xmlns:xlink="http://www.w3.org/1999/xlink" x="0px" y="0px"
	 viewBox="0 0 250 250" enable-background="new 0 0 250 250" xml:space="preserve">
<path fill="#A692FE" d="M25,0h200c13.81,0,25,11.19,25,25v200c0,13.81-11.19,25-25,25H25c-13.81,0-25-11.19-25-25V25
	C0,11.19,11.19,0,25,0z"/>
<path fill="#FFFFFF" d="M50.81,32.26h148.38c10.25,0,18.55,8.3,18.55,18.55v148.38c0,10.25-8.3,18.55-18.55,18.55H50.81
	c-10.25,0-18.55-8.3-18.55-18.55V50.81C32.26,40.56,40.56,32.26,50.81,32.26z"/>
<g id="Layer_5">
	<path fill="#FF3B30" d="M155.2,165.85v-39.07c0-1.24,1.01-2.25,2.25-2.25h17.57c1.24,0,2.25,1.01,2.25,2.25v39.07
		c0,1.24-1.01,2.25-2.25,2.25h-17.57C156.21,168.1,155.2,167.09,155.2,165.85z"/>
	<path fill="#7467B0" d="M138.36,52c0.86-0.72,2.37-0.72,3.24,0l17.69,14.74l16.08,13.4c1.25,1.04,0.26,2.69-1.62,2.69h-33.76
		h-33.76c-1.88,0-2.87-1.65-1.62-2.69l16.08-13.4L138.36,52z"/>
	<g>
		<path fill="#FF9500" d="M103.28,92.79v21.79c0,0.95,0.91,1.72,2.02,1.72h16.44c1.03,0,1.89-0.66,2.01-1.53
			c0.89-6.46,7.35-11.48,15.19-11.48s14.3,5.02,15.19,11.48c0.12,0.87,0.98,1.53,2.01,1.53h18.51c1.12,0,2.02-0.77,2.02-1.72V92.79
			c0-0.95-0.91-1.72-2.02-1.72H105.3C104.18,91.07,103.28,91.84,103.28,92.79z"/>
	</g>
	<path fill="#007AFF" d="M103.28,165.85v-39.07c0-1.24,1.01-2.25,2.25-2.25h17.23c1.24,0,2.25,1.01,2.25,2.25v39.07
		c0,1.24-1.01,2.25-2.25,2.25h-17.23C104.28,168.1,103.28,167.09,103.28,165.85z"/>
	<path fill="#39B54A" d="M48.65,151.48l31.73-31.73c0.88-0.88,2.3-0.88,3.18,0l12.18,12.18c0.88,0.88,0.88,2.3,0,3.18l-31.73,31.73
		c-0.88,0.88-2.3,0.88-3.18,0l-12.18-12.18C47.78,153.78,47.78,152.36,48.65,151.48z"/>
</g>
<path fill="#7467B0" d="M19,40.97C19,28.83,28.83,19,40.97,19h168.05C221.17,19,231,28.83,231,40.97v168.05
	c0,12.14-9.83,21.97-21.97,21.97H40.98C28.84,231,19,221.16,19,209.02V40.97z M125,31.38c-12.64,0-24.89,2.47-36.44,7.36
	C77.41,43.45,67.4,50.2,58.8,58.8c-8.6,8.59-15.34,18.63-20.06,29.76c-4.89,11.54-7.36,23.8-7.36,36.44
	c0,12.64,2.47,24.89,7.36,36.44c4.71,11.15,11.47,21.16,20.06,29.76s18.61,15.34,29.76,20.06c11.54,4.89,23.8,7.36,36.44,7.36
	s24.89-2.47,36.44-7.36c11.15-4.71,21.16-11.47,29.76-20.06c8.6-8.6,15.34-18.61,20.06-29.76c4.89-11.54,7.36-23.8,7.36-36.44
	s-2.47-24.89-7.36-36.44C206.55,77.41,199.8,67.4,191.2,58.8c-8.6-8.6-18.62-15.34-29.76-20.06C149.89,33.85,137.64,31.38,125,31.38
	z"/>
<image overflow="visible" width="512" height="512" xlink:href="website-icon.png"  transform="matrix(1 0 0 1 698 -577.11)">
</image>
</svg>
